<svg width="56" height="57" viewBox="0 0 56 57" fill="none" xmlns="http://www.w3.org/2000/svg">
<g id="Icon/Success">
<path id="Oval 1 Copy 10" d="M28 56.5C43.464 56.5 56 43.964 56 28.5C56 13.036 43.464 0.5 28 0.5C12.536 0.5 0 13.036 0 28.5C0 43.964 12.536 56.5 28 56.5Z" fill="#F8BC44"/>
<path id="Vector" d="M39.1995 35.5L30.0995 26.4C30.9995 24.1 30.4995 21.4 28.5995 19.5C26.5995 17.5 23.5995 17.1 21.1995 18.2L25.4995 22.5L22.4995 25.5L18.0995 21.2C16.8995 23.6 17.3995 26.6 19.3995 28.6C21.2995 30.5 23.9995 31 26.2995 30.1L35.3995 39.2C35.7994 39.6 36.3995 39.6 36.7994 39.2L39.0995 36.9C39.5995 36.5 39.5995 35.8 39.1995 35.5Z" fill="white"/>
</g>
</svg>
