<svg width="204" height="160" viewBox="0 0 204 160" fill="none" xmlns="http://www.w3.org/2000/svg">
<circle cx="101.383" cy="80" r="80" fill="url(#paint0_linear_2807_4482)"/>
<path d="M200.567 103.006H189.955C189.045 103.006 188.171 102.644 187.527 101.999C186.883 101.355 186.522 100.481 186.522 99.5696C186.522 98.6583 186.883 97.7843 187.527 97.14C188.171 96.4956 189.045 96.1335 189.955 96.1335H193.721C194.56 95.9735 195.31 95.5057 195.823 94.8218C196.336 94.1378 196.576 93.2869 196.496 92.4354C196.415 91.5839 196.02 90.7932 195.388 90.2178C194.755 89.6424 193.931 89.3238 193.076 89.3242H156V96.1318H162.868C163.779 96.1318 164.652 96.4938 165.296 97.1382C165.94 97.7826 166.302 98.6566 166.302 99.5679C166.302 100.479 165.94 101.353 165.296 101.998C164.652 102.642 163.779 103.004 162.868 103.004H157.249C156.821 103.005 156.398 103.086 156 103.243V109.64C156.398 109.796 156.821 109.877 157.249 109.877H200.567C201.477 109.877 202.35 109.515 202.994 108.871C203.638 108.227 204 107.353 204 106.442C204 105.53 203.638 104.656 202.994 104.012C202.35 103.368 201.477 103.006 200.567 103.006Z" fill="url(#paint1_linear_2807_4482)"/>
<path d="M48 61.5732H9.86365C8.99399 61.5749 8.15613 61.8945 7.51341 62.4696C6.87069 63.0447 6.46916 63.8342 6.3871 64.6841C6.30505 65.5341 6.54834 66.3836 7.06956 67.067C7.59079 67.7504 8.35257 68.2188 9.20642 68.3808H11.7726C12.7009 68.3808 13.5912 68.7428 14.2475 69.3872C14.9039 70.0316 15.2727 70.9056 15.2727 71.8169C15.2727 72.7282 14.9039 73.6022 14.2475 74.2466C13.5912 74.891 12.7009 75.253 11.7726 75.253H3.49989C2.57166 75.253 1.68145 75.615 1.02509 76.2594C0.368737 76.9037 0 77.7777 0 78.6889C0 79.6002 0.368737 80.4741 1.02509 81.1184C1.68145 81.7628 2.57166 82.1248 3.49989 82.1248H48V61.5732Z" fill="url(#paint2_linear_2807_4482)"/>
<rect x="42.6953" y="44.2952" width="117.374" height="77.916" rx="3.5" fill="#E7EEF4" stroke="white"/>
<path d="M42.6953 47.7952C42.6953 45.8622 44.2623 44.2952 46.1953 44.2952H156.569C158.502 44.2952 160.069 45.8622 160.069 47.7952V50.6664H42.6953V47.7952Z" fill="#0055A4" fill-opacity="0.45" stroke="white"/>
<rect x="72.4648" y="77.4006" width="82.6666" height="38.9333" rx="4" fill="white" fill-opacity="0.45"/>
<rect x="72.4648" y="55.5334" width="21.8667" height="17.6" rx="4" fill="white" fill-opacity="0.45"/>
<path d="M42.1953 51.1665H67.3444V122.711H46.1953C43.9862 122.711 42.1953 120.92 42.1953 118.711V51.1665Z" fill="white" fill-opacity="0.45"/>
<rect x="98.0703" y="55.5334" width="57.0667" height="17.6" rx="4" fill="white" fill-opacity="0.45"/>
<ellipse cx="47.3946" cy="47.6975" rx="1.30081" ry="1.30081" fill="white"/>
<ellipse cx="51.7305" cy="47.6975" rx="1.30081" ry="1.30081" fill="white" fill-opacity="0.85"/>
<ellipse cx="56.0742" cy="47.6975" rx="1.30081" ry="1.30081" fill="white" fill-opacity="0.65"/>
<rect x="46.0938" y="57.6707" width="17.3442" height="1.73442" fill="#0055A4" fill-opacity="0.45"/>
<rect x="46.0938" y="62.8742" width="17.3442" height="1.73442" fill="#0055A4" fill-opacity="0.45"/>
<rect x="46.0938" y="68.0773" width="14.3089" height="1.73442" fill="#0055A4" fill-opacity="0.45"/>
<rect x="46.0938" y="73.2809" width="17.3442" height="1.73442" fill="#0055A4" fill-opacity="0.45"/>
<rect x="46.0938" y="78.4841" width="11.2737" height="1.73442" fill="#0055A4" fill-opacity="0.45"/>
<rect x="46.0938" y="83.6876" width="6.93767" height="1.73442" fill="#0055A4" fill-opacity="0.45"/>
<path d="M80.374 98.6777L90.1924 88.4619H93.5977V98.6777H97.2178V101.664H93.5977V105.252H90.1924V101.664H80.3525L80.374 98.6777ZM90.1924 98.6777V92.7695L84.4561 98.6777H90.1924ZM99.8389 96.8193C99.8389 95.4658 100.043 94.252 100.451 93.1777C100.859 92.1035 101.439 91.194 102.191 90.4492C102.943 89.6973 103.856 89.1243 104.931 88.7305C106.005 88.3366 107.208 88.1396 108.54 88.1396C109.872 88.1396 111.075 88.3366 112.149 88.7305C113.224 89.1243 114.137 89.6973 114.889 90.4492C115.641 91.194 116.221 92.1035 116.629 93.1777C117.037 94.252 117.241 95.4658 117.241 96.8193C117.241 98.1729 117.037 99.3867 116.629 100.461C116.221 101.535 115.641 102.445 114.889 103.189C114.137 103.934 113.224 104.504 112.149 104.897C111.075 105.291 109.872 105.488 108.54 105.488C107.208 105.488 106.005 105.291 104.931 104.897C103.856 104.504 102.943 103.934 102.191 103.189C101.439 102.445 100.859 101.535 100.451 100.461C100.043 99.3867 99.8389 98.1729 99.8389 96.8193ZM103.244 96.8086C103.244 97.7253 103.366 98.5345 103.609 99.2363C103.86 99.9382 104.215 100.529 104.673 101.009C105.131 101.481 105.686 101.843 106.338 102.094C106.99 102.337 107.724 102.459 108.54 102.459C109.356 102.459 110.09 102.337 110.742 102.094C111.394 101.843 111.949 101.481 112.407 101.009C112.866 100.529 113.216 99.9382 113.46 99.2363C113.711 98.5345 113.836 97.7253 113.836 96.8086C113.836 95.8991 113.711 95.097 113.46 94.4023C113.216 93.7005 112.866 93.1097 112.407 92.6299C111.949 92.1501 111.394 91.7884 110.742 91.5449C110.09 91.2943 109.356 91.1689 108.54 91.1689C107.724 91.1689 106.99 91.2943 106.338 91.5449C105.686 91.7884 105.131 92.1501 104.673 92.6299C104.215 93.1097 103.86 93.7005 103.609 94.4023C103.366 95.097 103.244 95.8991 103.244 96.8086ZM120.7 98.6777L130.519 88.4619H133.924V98.6777H137.544V101.664H133.924V105.252H130.519V101.664H120.679L120.7 98.6777ZM130.519 98.6777V92.7695L124.782 98.6777H130.519ZM141.68 88.4619H145.085V99.1396H141.68V88.4619ZM140.831 103.394C140.831 103.107 140.888 102.839 141.003 102.588C141.125 102.33 141.297 102.108 141.519 101.922C141.741 101.729 142.009 101.578 142.324 101.471C142.639 101.363 142.994 101.31 143.388 101.31C143.782 101.31 144.136 101.363 144.451 101.471C144.766 101.578 145.031 101.729 145.246 101.922C145.468 102.108 145.636 102.33 145.751 102.588C145.873 102.839 145.934 103.107 145.934 103.394C145.934 103.68 145.873 103.952 145.751 104.21C145.636 104.461 145.468 104.679 145.246 104.865C145.031 105.051 144.766 105.198 144.451 105.306C144.136 105.42 143.782 105.478 143.388 105.478C142.994 105.478 142.639 105.42 142.324 105.306C142.009 105.198 141.741 105.051 141.519 104.865C141.297 104.679 141.125 104.461 141.003 104.21C140.888 103.952 140.831 103.68 140.831 103.394Z" fill="#0055A4" fill-opacity="0.55"/>
<defs>
<linearGradient id="paint0_linear_2807_4482" x1="101.383" y1="0" x2="101.383" y2="160" gradientUnits="userSpaceOnUse">
<stop stop-color="#E7EEF4"/>
<stop offset="1" stop-color="#E7EEF4" stop-opacity="0"/>
</linearGradient>
<linearGradient id="paint1_linear_2807_4482" x1="210" y1="100.001" x2="159.176" y2="100.001" gradientUnits="userSpaceOnUse">
<stop stop-color="white" stop-opacity="0.45"/>
<stop offset="1" stop-color="white"/>
</linearGradient>
<linearGradient id="paint2_linear_2807_4482" x1="42" y1="72.0006" x2="-2.03155e-07" y2="72.0006" gradientUnits="userSpaceOnUse">
<stop stop-color="white"/>
<stop offset="1" stop-color="white" stop-opacity="0.45"/>
</linearGradient>
</defs>
</svg>
